<svg width="300" height="300" viewBox="0 0 300 300" fill="none" xmlns="http://www.w3.org/2000/svg">
<rect width="300" height="300" fill="#EBEBEB"/>
<path d="M121.875 110.763C121.875 106.253 124.893 102.302 129.244 101.115L215.955 77.4667C220.51 76.2244 225 79.6535 225 84.375V84.375V103.125V182.812C225 195.755 210.309 206.25 192.188 206.25C174.066 206.25 159.375 195.755 159.375 182.812C159.375 169.87 174.066 159.375 192.188 159.375C197.222 159.375 201.989 160.186 206.25 161.63V113.353L140.625 131.25V201.562C140.625 214.505 125.934 225 107.812 225C89.6906 225 75 214.505 75 201.562C75 188.62 89.6906 178.125 107.812 178.125C112.847 178.125 117.614 178.936 121.875 180.38V131.25V110.763Z" fill="#DDDCDC"/>
</svg>
