<svg width="80" height="80" viewBox="0 0 80 80" fill="none" xmlns="http://www.w3.org/2000/svg">
<g clip-path="url(#clip0_1452_960)">
<path d="M10.4533 46.5768C10.055 48.0633 9.95337 49.6137 10.1542 51.1395C10.3551 52.6652 10.8545 54.1365 11.624 55.4692C12.3935 56.802 13.4179 57.9701 14.6388 58.907C15.8597 59.8438 17.2532 60.531 18.7397 60.9293C20.2262 61.3276 21.7766 61.4292 23.3023 61.2283C24.8281 61.0275 26.2994 60.528 27.6321 59.7586C28.9649 58.9891 30.133 57.9647 31.0698 56.7438C32.0067 55.5229 32.6939 54.1294 33.0922 52.6429C33.4905 51.1564 33.5921 49.606 33.3912 48.0802C33.1904 46.5545 32.6909 45.0832 31.9215 43.7505C31.152 42.4177 30.1276 41.2496 28.9067 40.3127C27.6857 39.3759 26.2923 38.6887 24.8058 38.2904C23.3193 37.8921 21.7689 37.7905 20.2431 37.9914C18.7174 38.1922 17.2461 38.6916 15.9134 39.4611C14.5806 40.2306 13.4125 41.255 12.4756 42.4759C11.5388 43.6968 10.8516 45.0903 10.4533 46.5768V46.5768Z" fill="white"/>
<path d="M37.1602 17.3365L28.061 51.2949L33.0919 52.6429L39.495 28.7463L52.3189 36.2265L54.6779 27.4225L37.1602 17.3365Z" fill="white"/>
<g clip-path="url(#clip1_1452_960)">
<path d="M71.759 32.9688C71.1468 32.9688 70.6507 32.4686 70.6507 31.8526V26.2727C70.6507 25.656 71.1469 25.1566 71.759 25.1566C72.371 25.1566 72.8678 25.656 72.8678 26.2727V31.8529C72.8678 32.4689 72.3716 32.9691 71.759 32.9691V32.9688ZM66.1701 36.875C65.558 36.875 65.0613 36.3756 65.0613 35.7588V22.3662C65.0613 21.75 65.5581 21.25 66.1701 21.25C66.7822 21.25 67.279 21.75 67.279 22.3662V35.7588C67.279 36.3756 66.7822 36.875 66.1701 36.875V36.875ZM60.5854 32.9688C59.9732 32.9688 59.4766 32.4686 59.4766 31.8526V26.2727C59.4766 25.656 59.9734 25.1566 60.5854 25.1566C61.1974 25.1566 61.6943 25.656 61.6943 26.2727V31.8529C61.6943 32.4689 61.1974 32.9691 60.5854 32.9691V32.9688Z" fill="white"/>
</g>
</g>
<defs>
<clipPath id="clip0_1452_960">
<rect width="80" height="80" fill="white"/>
</clipPath>
<clipPath id="clip1_1452_960">
<rect width="15.625" height="15.625" fill="white" transform="translate(58.3594 21.25)"/>
</clipPath>
</defs>
</svg>
